<svg width="207" height="38" viewBox="0 0 207 38" fill="none" xmlns="http://www.w3.org/2000/svg">
<path d="M35.3123 12.5208C33.0755 8.66886 27.4835 8.66886 25.2466 12.5208L21.9243 18.242H28.5821C32.5337 18.242 35.5177 21.0186 36.2712 24.3965L37.0886 22.9889C38.4198 20.6965 38.4198 17.8721 37.0886 15.5796L35.3123 12.5208Z" fill="#BB6BD9"></path>
<path d="M23.7729 35.7097C26.307 33.3673 27.213 29.4341 25.2479 26.05L21.8979 20.2812L28.5819 20.2813C33.0555 20.2813 35.8515 25.0961 33.6147 28.948L31.4318 32.7072C30.3531 34.5647 28.3597 35.7091 26.2024 35.7094L23.7729 35.7097Z" fill="#EB5757"></path>
<path d="M7.61133 30.6141C10.928 31.6482 14.8321 30.4659 16.8056 27.0674L20.138 21.3289L23.4716 27.0695C25.7088 30.922 22.9116 35.7375 18.4373 35.7363L14.0704 35.7352C11.9133 35.7346 9.9203 34.5902 8.84177 32.7329L7.61133 30.6141Z" fill="#F2994A"></path>
<path d="M4.00477 14.1721L3.18738 15.5797C1.85616 17.8721 1.85616 20.6965 3.18738 22.9889L4.96367 26.0478C7.20048 29.8997 12.7925 29.8997 15.0293 26.0478L18.3618 20.3091H11.6899C7.74519 20.3091 4.76459 17.5421 4.00477 14.1721Z" fill="#F2C94C"></path>
<path d="M6.60767 9.68976C6.45048 9.97089 6.31977 10.2569 6.21425 10.5455C6.32007 10.2561 6.45121 9.96936 6.60899 9.6875L6.60767 9.68976Z" fill="#F2C94C"></path>
<path d="M16.5041 2.83813C13.9684 5.1803 13.0614 9.1148 15.0271 12.4997L18.3779 18.2701H11.6897C7.21608 18.2701 4.42007 13.4553 6.65688 9.60336L8.84169 5.841C9.92022 3.98371 11.9132 2.83935 14.0703 2.83878L16.5041 2.83813Z" fill="#27AE60"></path>
<path d="M20.1429 17.2312L16.8034 11.4803C14.5664 7.62806 17.363 2.81288 21.837 2.81348L26.2026 2.81406C28.3599 2.81434 30.3533 3.95874 31.432 5.81628L32.6757 7.95815C29.3567 6.91792 25.4461 8.09899 23.4703 11.5014L20.1429 17.2312Z" fill="#2F80ED"></path>
<path fill-rule="evenodd" clip-rule="evenodd" d="M26.2028 0.774423C29.0929 0.774806 31.7632 2.30787 33.2082 4.79626C35.0971 8.04892 36.9759 11.3073 38.8647 14.56C40.5623 17.4833 40.5623 21.0851 38.8647 24.0085C36.9825 27.2498 35.0904 30.4854 33.2082 33.7267C31.7631 36.2151 29.0928 37.7482 26.2028 37.7486C22.1576 37.7491 18.1147 37.7755 14.0698 37.7744C11.1801 37.7736 8.51029 36.2406 7.06547 33.7525C5.17965 30.5051 3.29694 27.2558 1.41115 24.0083C-0.286464 21.085 -0.286463 17.4832 1.41115 14.5598C3.29618 11.3137 5.18053 8.06722 7.06556 4.8211C8.51039 2.33303 11.1802 0.800018 14.0699 0.799254C18.1149 0.798561 22.158 0.773886 26.2028 0.774423ZM16.5039 2.83808L14.0704 2.8385C12.1451 2.83901 10.3506 3.75071 9.22031 5.26725C9.08419 5.44988 8.95769 5.64127 8.84177 5.8409L6.65696 9.60326C6.64079 9.63111 6.62488 9.65901 6.60923 9.68696L6.60876 9.68777C4.50301 13.4505 7.14238 18.0856 11.4326 18.2645H18.3588V18.2419H18.3617L15.0271 12.4995C13.0615 9.11465 13.9684 5.18027 16.5039 2.83808ZM20.1379 21.3289C21.0549 22.908 21.9684 24.489 22.8889 26.066L23.4716 27.0695C25.7088 30.922 22.9115 35.7375 18.4372 35.7363L14.0703 35.7351C11.9133 35.7346 9.92029 34.5902 8.84176 32.7329L7.61121 30.6138C10.7902 31.6051 14.5089 30.5602 16.55 27.4791L16.5506 27.4782C16.6388 27.345 16.7239 27.208 16.8057 27.0672L20.1379 21.3289ZM18.3453 20.3091L15.8455 24.614C15.5693 25.0895 15.3056 25.5719 15.0294 26.0476C12.7926 29.8995 7.20054 29.8995 4.96373 26.0476L3.18744 22.9887C1.85622 20.6963 1.85622 17.8719 3.18744 15.5795L4.00474 14.172C4.38464 15.857 5.31975 17.3913 6.65296 18.5043C7.91836 19.5607 9.5424 20.2376 11.3908 20.3038C11.4898 20.3073 11.5895 20.3091 11.6899 20.3091H18.3453ZM21.898 20.2812H28.582C33.0556 20.2812 35.8516 25.0961 33.6148 28.948L31.4319 32.7071C30.3532 34.5646 28.3598 35.709 26.2025 35.7093L23.7729 35.7096C26.307 33.3673 27.213 29.434 25.2479 26.0499L21.898 20.2812ZM20.1429 17.231L16.8033 11.4801C14.5664 7.62788 17.363 2.8127 21.8369 2.8133L26.2025 2.81388C28.3599 2.81416 30.3533 3.95856 31.4319 5.8161L32.6757 7.95798C29.3567 6.91774 25.446 8.09881 23.4703 11.5012L20.1429 17.231ZM25.2465 12.5208C27.4833 8.66892 33.0754 8.66892 35.3122 12.5208L37.0885 15.5797C38.4197 17.8721 38.4197 20.6965 37.0885 22.989L36.2711 24.3966C35.5176 21.0187 32.5335 18.2421 28.582 18.2421H21.9242L25.2465 12.5208Z" fill="#283841"></path>
<path d="M14.0704 2.83855L16.5039 2.83813C13.9684 5.18032 13.0614 9.1147 15.027 12.4996L18.3617 18.242H18.3588V18.2646H16.1206L13.3365 13.4702C11.2441 9.867 11.7669 5.7716 13.9068 2.84079C13.9612 2.83931 14.0157 2.83857 14.0704 2.83855Z" fill="black" fill-opacity="0.22"></path>
<path d="M4.00467 14.1721C4.38458 15.8571 5.31972 17.3914 6.65292 18.5044C7.91832 19.5608 9.54236 20.2377 11.3907 20.3038C11.4898 20.3074 11.5895 20.3092 11.6898 20.3092H18.3453L17.2182 22.2501H11.6898C7.52546 22.2501 4.23149 19.7766 2.73804 16.4925C2.8656 16.1808 3.01539 15.8757 3.1874 15.5795L4.00467 14.1721Z" fill="black" fill-opacity="0.22"></path>
<path d="M7.6113 30.6141L7.61135 30.614C10.7903 31.6051 14.5089 30.5602 16.55 27.4792L16.5506 27.4783C16.6388 27.3451 16.7239 27.2081 16.8056 27.0673L20.1379 21.329C20.4405 21.8502 20.7428 22.3716 21.0451 22.893C21.1182 23.0191 21.1913 23.1451 21.2643 23.2711L18.4962 28.0379C16.3969 31.6531 12.5499 33.2492 8.91618 32.8577C8.8909 32.8165 8.86608 32.7749 8.84172 32.733L7.6113 30.6141Z" fill="black" fill-opacity="0.22"></path>
<path d="M26.3697 35.707C26.3141 35.7086 26.2583 35.7094 26.2024 35.7094L23.7728 35.7097C26.3069 33.3673 27.213 29.434 25.2479 26.0499L21.898 20.2813L21.8982 20.2812H24.1521L26.9386 25.0796C29.0305 28.682 28.5083 32.7764 26.3697 35.707Z" fill="black" fill-opacity="0.22"></path>
<path d="M37.5396 22.0716C37.4117 22.3848 37.2613 22.6914 37.0884 22.989L36.271 24.3966C35.5176 21.0187 32.5335 18.2421 28.582 18.2421H21.9242L23.0513 16.3012H28.582C32.7518 16.3012 36.0489 18.781 37.5396 22.0716Z" fill="black" fill-opacity="0.22"></path>
<path d="M31.3701 5.71213C31.391 5.74655 31.4116 5.78122 31.4319 5.81615L32.6757 7.95803C29.3566 6.9178 25.446 8.09886 23.4702 11.5012L20.1429 17.2311L19.0158 15.2902L21.7796 10.5308C23.8809 6.91214 27.7333 5.31644 31.3701 5.71213Z" fill="black" fill-opacity="0.22"></path>
<path d="M195.795 12.2245V9.71268H198.34V26.3244C198.34 28.7023 197.637 30.5778 196.264 31.9174C194.857 33.2906 192.881 33.9604 190.302 33.9604C188.159 33.9604 186.417 33.4915 185.144 32.4868C183.838 31.5155 183.101 30.1424 182.934 28.4008H185.613C185.948 30.6113 187.489 31.683 190.302 31.683C193.852 31.683 195.661 29.9079 195.661 26.3244V24.6498C194.288 26.4918 192.345 27.3961 189.867 27.3961C187.422 27.3961 185.479 26.5923 184.039 24.9177C182.566 23.2767 181.829 21.0997 181.829 18.3534C181.829 15.6072 182.566 13.3967 184.039 11.7557C185.446 10.1481 187.388 9.31079 189.867 9.31079C192.412 9.31079 194.388 10.282 195.795 12.2245ZM190.202 24.9847C191.876 24.9847 193.249 24.4154 194.254 23.2097C195.259 22.0375 195.761 20.4299 195.761 18.3534C195.761 16.3105 195.259 14.7029 194.254 13.4972C193.249 12.325 191.876 11.7222 190.202 11.7222C188.527 11.7222 187.154 12.325 186.149 13.5307C185.144 14.7364 184.642 16.344 184.642 18.3534C184.642 20.3629 185.144 21.9705 186.149 23.1762C187.154 24.3819 188.527 24.9847 190.202 24.9847Z" fill="#283841"></path>
<path d="M176.775 12.2245V9.71268H179.321V26.3244C179.321 28.7023 178.617 30.5778 177.244 31.9174C175.838 33.2906 173.862 33.9604 171.283 33.9604C169.139 33.9604 167.398 33.4915 166.125 32.4868C164.819 31.5155 164.082 30.1424 163.915 28.4008H166.594C166.929 30.6113 168.47 31.683 171.283 31.683C174.833 31.683 176.641 29.9079 176.641 26.3244V24.6498C175.268 26.4918 173.326 27.3961 170.847 27.3961C168.403 27.3961 166.46 26.5923 165.02 24.9177C163.546 23.2767 162.809 21.0997 162.809 18.3534C162.809 15.6072 163.546 13.3967 165.02 11.7557C166.427 10.1481 168.369 9.31079 170.847 9.31079C173.393 9.31079 175.369 10.282 176.775 12.2245ZM171.182 24.9847C172.857 24.9847 174.23 24.4154 175.235 23.2097C176.239 22.0375 176.742 20.4299 176.742 18.3534C176.742 16.3105 176.239 14.7029 175.235 13.4972C174.23 12.325 172.857 11.7222 171.182 11.7222C169.508 11.7222 168.135 12.325 167.13 13.5307C166.125 14.7364 165.623 16.344 165.623 18.3534C165.623 20.3629 166.125 21.9705 167.13 23.1762C168.135 24.3819 169.508 24.9847 171.182 24.9847Z" fill="#283841"></path>
<path d="M161.138 18.3534V19.2912H148.009C148.143 21.1667 148.645 22.6068 149.583 23.5446C150.487 24.4823 151.726 24.9512 153.334 24.9512C155.712 24.9512 157.253 23.8795 157.922 21.7361H160.702C160.233 23.4776 159.362 24.8842 158.09 25.889C156.817 26.8937 155.21 27.3961 153.267 27.3961C150.856 27.3961 148.947 26.5923 147.473 24.9512C145.966 23.3436 145.229 21.1332 145.229 18.3534C145.229 15.6406 145.966 13.4637 147.44 11.7891C148.88 10.1481 150.789 9.31079 153.2 9.31079C155.678 9.31079 157.621 10.1816 159.028 11.8896C160.434 13.6312 161.138 15.7746 161.138 18.3534ZM153.2 11.7557C151.793 11.7557 150.621 12.2245 149.75 13.0953C148.846 13.9661 148.277 15.2388 148.076 16.8798H158.257C158.123 15.3727 157.587 14.1335 156.717 13.1958C155.812 12.258 154.64 11.7557 153.2 11.7557Z" fill="#283841"></path>
<path d="M142.871 9.44476C142.938 9.44476 143.34 9.47826 144.01 9.51175V14.2675H142.67C139.589 14.2675 138.082 15.8416 138.082 18.9563V26.9942H132.857V9.71269H137.948V12.9279C138.751 10.617 140.393 9.44476 142.871 9.44476Z" fill="#283841"></path>
<path d="M131.082 18.8558V19.894H118.289C118.456 21.0997 118.892 22.004 119.595 22.6068C120.265 23.2432 121.169 23.5446 122.241 23.5446C123.915 23.5446 125.088 22.9083 125.724 21.6021H130.681C130.212 23.4106 129.207 24.8173 127.7 25.8555C126.159 26.8937 124.351 27.3961 122.241 27.3961C119.561 27.3961 117.385 26.5923 115.743 24.9177C114.069 23.2767 113.265 21.0997 113.265 18.3534C113.265 15.6072 114.069 13.4302 115.71 11.7891C117.318 10.1481 119.461 9.31079 122.174 9.31079C124.853 9.31079 126.997 10.1816 128.671 11.8896C130.279 13.6312 131.082 15.9756 131.082 18.8558ZM122.107 13.1623C119.963 13.1623 118.691 14.301 118.322 16.5784H125.958C125.757 15.5067 125.355 14.6694 124.686 14.0666C124.016 13.4637 123.145 13.1623 122.107 13.1623Z" fill="#283841"></path>
<path d="M112.746 9.71267V13.5307H109.431V21.6021C109.431 22.2049 109.565 22.6068 109.866 22.8078C110.134 23.0087 110.67 23.1092 111.407 23.1092H112.746V26.9942C112.11 27.0947 111.306 27.1281 110.335 27.1281C108.158 27.1281 106.584 26.7597 105.646 25.9894C104.675 25.2191 104.206 23.9465 104.206 22.1714V13.5307H101.627V9.71267H104.206V4.5885H109.431V9.71267H112.746Z" fill="#283841"></path>
<path d="M93.4997 27.4966C90.7534 27.4966 88.744 27.0277 87.4043 26.0899C86.0646 25.1522 85.3278 23.6116 85.1939 21.5016H90.2846C90.3515 22.4394 90.653 23.0757 91.1553 23.4441C91.6577 23.846 92.4615 24.0135 93.6002 24.0135C95.5427 24.0135 96.5139 23.4776 96.5139 22.3389C96.5139 21.803 96.2795 21.4011 95.8776 21.1332C95.4422 20.8653 94.6719 20.6308 93.5332 20.4299L91.2893 20.0615C87.4043 19.4587 85.4618 17.7171 85.4618 14.7699C85.4618 13.0283 86.1316 11.6887 87.4713 10.7509C88.8109 9.81316 90.7199 9.31079 93.2318 9.31079C98.3894 9.31079 101.069 11.2868 101.27 15.2388H96.4135C96.38 13.6312 95.3082 12.7939 93.2318 12.7939C91.4567 12.7939 90.586 13.3632 90.586 14.435C90.586 14.9373 90.7869 15.3057 91.1888 15.5737C91.5907 15.8416 92.2271 16.0425 93.0978 16.1765L95.6767 16.5449C97.7531 16.8798 99.2602 17.4492 100.265 18.32C101.236 19.1907 101.739 20.3964 101.739 21.9035C101.739 23.712 101.002 25.0852 99.5616 26.0564C98.1215 27.0277 96.112 27.4966 93.4997 27.4966Z" fill="#283841"></path>
<path d="M84.6101 26.9942H79.352C79.0841 26.4918 78.9166 25.8555 78.9166 25.0517C77.7444 26.6258 75.9024 27.3961 73.3905 27.3961C71.4815 27.3961 69.9409 26.9272 68.8022 25.9895C67.6635 25.0517 67.0942 23.779 67.0942 22.1045C67.0942 18.8893 69.3381 17.1143 73.8594 16.7124L76.5722 16.4779C78.0458 16.344 78.8161 15.7746 78.8161 14.7699C78.8161 13.6312 77.9119 13.0283 76.1703 13.0283C75.0986 13.0283 74.3283 13.1958 73.8929 13.5307C73.4575 13.8656 73.1896 14.435 73.1226 15.3057H67.9315C68.2329 11.3203 70.9792 9.31079 76.2038 9.31079C81.328 9.31079 83.9068 11.0858 83.9068 14.6359V23.8125C83.9068 25.2861 84.1413 26.3244 84.6101 26.9942ZM74.9646 23.8795C76.1368 23.8795 77.0746 23.5781 77.7779 22.9752C78.4477 22.3724 78.8161 21.4346 78.8161 20.1955V18.9228C78.4812 19.2577 77.9119 19.4921 77.0746 19.5926L74.9311 19.8271C73.2566 20.028 72.4193 20.6978 72.4193 21.9035C72.4193 22.5064 72.6202 23.0087 73.0891 23.3436C73.5245 23.712 74.1608 23.8795 74.9646 23.8795Z" fill="#283841"></path>
<path d="M66.354 18.8558V19.894H53.5603C53.7278 21.0997 54.1632 22.004 54.8665 22.6068C55.5363 23.2432 56.4406 23.5446 57.5123 23.5446C59.1869 23.5446 60.359 22.9083 60.9954 21.6021H65.9521C65.4832 23.4106 64.4785 24.8173 62.9714 25.8555C61.4308 26.8937 59.6222 27.3961 57.5123 27.3961C54.833 27.3961 52.6561 26.5923 51.015 24.9177C49.3404 23.2767 48.5366 21.0997 48.5366 18.3534C48.5366 15.6072 49.3404 13.4302 50.9815 11.7891C52.5891 10.1481 54.7325 9.31079 57.4453 9.31079C60.1246 9.31079 62.2681 10.1816 63.9426 11.8896C65.5502 13.6312 66.354 15.9756 66.354 18.8558ZM57.3783 13.1623C55.2349 13.1623 53.9622 14.301 53.5938 16.5784H61.2298C61.0289 15.5067 60.627 14.6694 59.9572 14.0666C59.2873 13.4637 58.4166 13.1623 57.3783 13.1623Z" fill="#283841"></path>
<path d="M206.728 5.81104C206.728 7.46654 205.386 8.80859 203.73 8.80859C202.075 8.80859 200.733 7.46654 200.733 5.81104C200.733 4.15553 202.075 2.81348 203.73 2.81348C205.386 2.81348 206.728 4.15553 206.728 5.81104Z" fill="#283841"></path>
</svg>